<?xml version="1.0" standalone="no"?>
<!DOCTYPE svg PUBLIC "-//W3C//DTD SVG 20010904//EN"
 "http://www.w3.org/TR/2001/REC-SVG-20010904/DTD/svg10.dtd">
<svg version="1.0" xmlns="http://www.w3.org/2000/svg"
 width="901.000000pt" height="924.000000pt" viewBox="0 0 901.000000 924.000000"
 preserveAspectRatio="xMidYMid meet">

<g transform="translate(0.000000,924.000000) scale(0.100000,-0.100000)"
fill="#000000" stroke="none">
<path d="M4249 9230 c-1418 -94 -2672 -823 -3467 -2016 -393 -590 -650 -1284
-741 -2001 -129 -1016 78 -2051 585 -2935 457 -795 1156 -1450 1962 -1835
1369 -655 2944 -574 4230 218 277 170 529 368 781 614 587 573 1008 1291 1235
2106 245 881 225 1818 -55 2687 -562 1736 -2057 2963 -3834 3146 -187 19 -529
27 -696 16z m481 -450 c895 -61 1678 -372 2355 -936 408 -340 779 -813 1028
-1310 219 -438 360 -926 429 -1484 18 -144 17 -755 0 -915 -59 -526 -231
-1069 -488 -1538 -86 -158 -309 -492 -421 -632 -217 -272 -579 -605 -889 -818
-420 -288 -804 -463 -1269 -577 -305 -75 -550 -100 -955 -100 -286 -1 -446 12
-710 55 -852 140 -1691 594 -2276 1233 -284 310 -494 612 -668 961 -83 166
-125 269 -202 494 -167 493 -234 954 -221 1522 10 431 66 781 187 1175 118
384 358 869 588 1190 428 597 1050 1092 1747 1388 296 126 679 228 1005 267
274 32 526 41 760 25z"/>
<path d="M4404 8485 c-65 -34 -163 -87 -217 -118 l-99 -57 -89 0 c-49 0 -89
-4 -89 -9 0 -5 15 -20 33 -32 17 -12 34 -24 36 -25 2 -2 -12 -16 -30 -31 -89
-74 -242 -220 -248 -236 -7 -18 -10 -17 -40 8 -17 15 -34 25 -37 22 -3 -3 -18
-38 -33 -78 -25 -71 -29 -75 -81 -101 -30 -15 -69 -28 -87 -28 -22 0 -33 -6
-38 -19 -3 -10 -14 -29 -25 -41 -31 -36 -25 -55 28 -86 26 -15 48 -28 50 -29
7 -6 -92 -137 -136 -182 -78 -78 -353 -338 -362 -341 -10 -4 -14 8 -39 127
-12 51 -45 185 -76 296 -30 111 -55 207 -55 214 0 6 8 11 18 11 9 1 -1 7 -23
15 -29 11 -43 11 -55 3 -26 -19 -280 -281 -280 -289 0 -4 -14 6 -31 22 -52 49
-54 47 -141 -119 -28 -53 -59 -109 -70 -124 -11 -16 -21 -53 -25 -93 -6 -63
-5 -66 17 -72 l22 -6 -21 -12 c-14 -7 -31 -35 -45 -76 -12 -35 -31 -77 -41
-92 -17 -27 -17 -28 4 -48 11 -11 21 -24 21 -29 0 -16 -104 -49 -238 -75 -13
-2 -52 -29 -85 -60 -34 -30 -91 -81 -125 -112 -53 -48 -72 -58 -110 -63 l-46
-5 -4 -85 c-4 -97 -24 -150 -98 -250 l-44 -60 26 -10 c14 -6 32 -10 40 -10 11
0 14 -18 14 -87 0 -72 3 -90 19 -107 28 -30 35 -67 17 -91 -14 -19 -15 -19
-52 -2 -20 10 -40 14 -44 10 -4 -4 -16 -30 -26 -58 -10 -27 -36 -67 -57 -88
-21 -21 -37 -40 -35 -42 1 -2 20 -17 41 -33 l38 -31 -92 -49 -91 -50 41 -7 41
-7 -40 -50 c-22 -28 -40 -55 -40 -60 0 -5 -16 -8 -36 -6 l-36 3 -25 -85 c-13
-47 -30 -95 -38 -107 -13 -19 -11 -24 19 -56 36 -38 46 -71 46 -149 0 -42 2
-49 18 -44 44 13 72 18 72 12 0 -4 -6 -22 -14 -41 -15 -36 -46 -56 -113 -74
-42 -11 -42 -11 -48 -69 -10 -91 -27 -195 -36 -219 -7 -19 -4 -25 21 -38 29
-15 30 -17 30 -91 l0 -75 56 7 c51 6 56 5 61 -15 3 -14 13 -21 28 -21 27 0 65
-43 65 -72 0 -14 5 -17 22 -13 13 3 62 13 111 24 l87 19 23 -32 c17 -24 21
-42 19 -78 l-4 -46 59 -12 c69 -14 93 -26 93 -44 0 -7 9 -35 21 -61 20 -44 23
-47 51 -41 17 3 52 6 79 6 l48 0 11 55 c6 30 14 55 17 55 4 0 32 -25 64 -55
55 -53 60 -55 111 -55 50 0 55 2 71 33 10 17 29 45 41 61 l24 29 173 -54 c96
-29 181 -52 190 -52 9 1 135 32 280 68 205 52 290 69 379 76 63 4 136 11 161
14 l47 7 123 -139 c68 -76 176 -194 240 -263 64 -69 146 -158 184 -199 l68
-74 -6 -81 c-17 -267 -60 -718 -78 -816 -81 -461 -131 -726 -140 -735 -5 -5
-191 -72 -412 -149 l-402 -139 -170 -7 c-129 -5 -206 -14 -320 -37 -82 -17
-168 -35 -190 -39 -37 -7 -34 -8 40 -15 44 -4 217 -10 385 -14 399 -8 572 -24
533 -48 -29 -18 -520 -97 -603 -97 -34 0 -40 -5 -92 -78 -74 -105 -73 -101
-46 -111 77 -29 84 -27 130 38 24 34 52 63 63 66 24 6 438 35 495 35 34 0 40
-3 40 -20 0 -12 -12 -32 -26 -46 -18 -19 -24 -33 -20 -53 27 -142 71 -331 77
-329 19 7 332 313 360 352 l31 43 110 17 c60 10 117 20 125 23 8 3 -10 -32
-41 -78 -31 -46 -56 -90 -56 -97 0 -27 82 34 211 156 l130 125 40 -39 c64 -62
66 -71 27 -111 -18 -20 -72 -68 -120 -108 -95 -80 -95 -85 2 -85 l44 0 -44
-45 -44 -45 -24 23 -25 22 6 -25 c4 -14 10 -55 13 -92 4 -40 12 -68 18 -68 13
0 280 238 313 278 l21 27 64 -60 c34 -33 123 -114 197 -180 l134 -119 22 28
c12 15 44 64 70 109 26 45 56 94 67 109 10 15 18 29 18 31 0 2 -170 140 -189
153 -3 3 27 101 36 117 2 4 49 -40 104 -97 55 -58 127 -128 160 -157 50 -43
60 -48 66 -34 3 10 -3 49 -14 87 -11 37 -17 70 -14 72 4 3 59 6 123 7 l117 2
168 -161 c197 -189 221 -209 227 -190 3 7 14 78 26 158 11 80 23 159 26 175
l5 30 311 -3 c181 -2 319 -7 329 -13 29 -15 23 -2 -23 55 -70 87 -60 83 -235
91 -273 11 -286 14 -702 151 -211 69 -381 127 -379 129 2 2 100 -24 218 -58
l215 -61 285 -4 c255 -3 836 6 828 13 -2 2 -127 28 -278 59 -151 31 -300 63
-330 72 -30 8 -107 18 -170 21 -112 5 -121 7 -390 98 -151 52 -282 96 -290 99
-23 10 -70 195 -161 636 -28 135 -57 304 -64 375 -8 72 -23 201 -34 288 l-20
158 172 212 c95 117 199 247 232 290 l60 78 165 -6 c91 -4 271 -13 400 -22
129 -9 244 -16 255 -16 11 1 108 40 215 88 228 103 341 145 387 145 60 0 125
-23 136 -48 10 -22 14 -23 82 -17 56 6 79 4 102 -9 17 -8 33 -12 37 -9 3 4 6
1 6 -5 0 -12 99 37 133 66 16 14 16 17 -3 49 -29 49 -25 84 14 142 19 28 32
51 29 51 -2 0 -23 -13 -46 -29 -23 -16 -53 -32 -67 -36 l-25 -6 25 15 c19 12
21 15 8 16 -10 0 -18 5 -18 11 0 5 -4 8 -9 5 -5 -3 -11 1 -15 9 -3 8 -2 15 3
15 5 0 11 9 14 20 4 17 2 20 -14 15 -11 -4 -19 -2 -19 5 0 6 3 9 8 6 4 -2 16
2 27 10 18 14 18 14 -4 14 -16 0 -21 4 -18 15 4 8 2 17 -3 20 -4 3 -10 -1 -13
-7 -2 -7 -4 0 -3 15 l1 28 17 -22 c10 -11 15 -26 11 -32 -3 -6 -1 -7 5 -3 6 4
32 -9 57 -29 26 -19 52 -35 58 -35 7 0 19 -4 27 -10 12 -8 12 -11 -3 -27 -13
-15 -47 -83 -47 -95 0 -2 26 -3 58 -4 41 0 71 -8 109 -27 29 -15 56 -27 60
-27 4 0 26 17 49 38 34 31 39 40 30 54 -8 13 -7 21 4 32 13 13 26 12 102 -3
l87 -18 8 22 c4 13 25 41 46 64 30 34 42 40 62 35 14 -3 25 -2 25 3 0 5 -10 9
-22 10 -12 1 -33 7 -47 12 -14 6 -37 12 -51 14 -25 4 -28 19 -20 112 0 6 5 3
11 -5 8 -12 10 -11 7 5 -2 12 -11 20 -23 20 -13 0 -29 14 -43 37 -32 53 -39
48 -7 -5 25 -44 31 -67 17 -67 -7 0 -92 158 -92 173 0 18 19 4 30 -23 7 -17
15 -29 17 -27 5 6 -19 59 -34 75 -18 18 -16 27 1 12 12 -9 15 -8 13 9 -1 14
-6 20 -15 16 -7 -3 -18 -5 -23 -5 -6 0 -8 -4 -5 -9 10 -15 -93 38 -114 59 -34
34 -25 46 43 60 34 6 78 18 97 26 l34 15 -40 39 -40 39 -115 -29 c-82 -21
-117 -26 -124 -18 -7 7 -7 9 1 5 13 -8 95 13 89 23 -2 4 6 5 19 3 13 -3 27 0
30 6 5 7 1 8 -10 4 -11 -4 -15 -3 -10 5 3 6 23 10 43 8 20 -1 51 1 67 5 30 7
30 7 -9 9 -22 1 -32 4 -22 7 9 2 17 8 17 13 0 14 -19 22 -32 13 -15 -9 -38
-13 -38 -7 0 3 11 9 25 14 14 5 25 14 25 20 0 6 -11 3 -25 -6 -14 -9 -28 -14
-31 -11 -3 3 9 13 28 21 18 9 55 36 82 59 l49 43 -71 42 c-38 23 -89 63 -112
89 -48 55 -120 162 -120 180 0 6 11 20 25 31 13 11 22 22 19 25 -3 3 -1 14 6
24 10 16 10 15 4 -6 -4 -15 -2 -21 4 -17 6 4 17 0 24 -7 7 -8 21 -12 32 -9 10
3 17 1 14 -4 -4 -5 10 -9 30 -9 21 -1 55 -3 77 -5 39 -5 40 -4 41 25 3 101 1
97 36 90 32 -7 32 -7 16 16 -9 14 -24 23 -34 21 -13 -2 -15 0 -7 5 9 6 4 21
-18 56 -18 29 -29 60 -29 83 0 23 -6 42 -17 50 -11 8 -13 13 -5 14 6 0 12 5
12 11 0 5 -5 7 -10 4 -16 -10 -52 5 -46 20 8 21 -6 26 -25 9 -10 -9 -25 -41
-34 -72 -27 -91 -34 -107 -56 -120 -12 -8 -22 -12 -23 -10 -1 2 -10 38 -19 82
-18 87 -57 179 -89 213 l-21 23 155 0 c85 0 157 3 161 6 3 4 -8 25 -26 48 -18
22 -50 62 -71 89 l-38 47 -54 -52 c-30 -29 -61 -56 -70 -61 -17 -10 -37 0 -31
16 2 7 -3 18 -12 25 -9 8 -10 10 -2 6 9 -4 24 5 42 26 31 35 35 45 19 55 -6 4
-7 11 -4 17 4 6 9 5 15 -3 7 -12 10 -12 21 0 7 8 8 11 2 8 -23 -13 -22 21 2
79 28 69 30 81 9 64 -8 -7 -12 -17 -8 -23 3 -5 1 -7 -5 -3 -6 3 -27 -5 -48
-19 -42 -29 -50 -30 -61 -11 -4 8 -59 40 -121 71 -63 32 -116 64 -119 71 -3 8
-9 11 -14 8 -5 -3 -8 -1 -7 5 2 5 -13 24 -32 41 -19 17 -28 28 -20 24 12 -5
13 -4 3 6 -10 11 -15 11 -28 0 -15 -13 -21 -32 -7 -28 4 1 17 -4 29 -12 22
-14 22 -14 -10 -28 -25 -10 -29 -15 -17 -22 9 -6 10 -10 3 -10 -18 0 21 -97
52 -128 l26 -26 -43 -38 c-24 -21 -45 -38 -48 -38 -3 0 -20 13 -38 28 l-33 27
22 80 c11 44 26 86 31 93 14 17 9 16 -50 -13 -29 -14 -54 -25 -57 -25 -3 0 -5
23 -5 51 l0 51 -32 -7 c-18 -4 -53 -16 -77 -26 -24 -10 -52 -19 -62 -19 -10 0
-34 -9 -53 -21 -38 -22 -88 -20 -151 6 -16 6 -43 16 -60 21 l-30 9 -3 133 -3
132 -38 0 c-29 0 -45 -7 -67 -30 -34 -35 -54 -38 -54 -8 0 11 22 105 49 207
27 102 61 238 76 301 15 63 30 122 33 130 2 8 -11 -10 -30 -40 -19 -30 -65
-101 -102 -157 -42 -62 -65 -106 -60 -114 4 -7 3 -10 -3 -6 -6 4 -19 -5 -28
-19 -14 -22 -15 -28 -4 -36 11 -8 10 -9 -2 -5 -12 4 -30 -13 -63 -63 -25 -39
-59 -76 -76 -85 l-31 -16 -15 36 c-8 20 -25 72 -37 116 -12 43 -25 79 -30 79
-4 0 -97 -45 -207 -100 -110 -55 -204 -100 -209 -100 -5 0 -12 12 -16 27 -12
51 -73 172 -128 257 -31 46 -57 95 -60 108 l-4 23 -2 -23 c0 -12 6 -34 15 -47
11 -17 12 -25 5 -25 -7 0 -9 -5 -6 -10 4 -6 10 -8 14 -5 5 2 7 -7 5 -20 -1
-14 2 -25 7 -25 5 0 9 -10 9 -23 0 -12 9 -29 19 -37 11 -7 17 -18 14 -23 -3
-5 -2 -12 3 -16 5 -3 22 -32 39 -63 30 -57 30 -57 10 -73 -11 -9 -15 -14 -8
-11 11 6 43 -18 43 -33 0 -4 -9 -7 -20 -7 -11 0 -19 5 -16 11 2 6 -6 12 -17
13 -16 1 -18 -1 -8 -7 7 -5 12 -14 9 -21 -3 -9 -8 -8 -20 4 -22 22 -58 21 -59
-1 0 -11 -3 -13 -6 -5 -3 7 -23 22 -46 34 -63 31 -194 126 -218 156 -19 24
-20 36 -15 97 3 39 2 86 -3 105 -11 50 19 110 111 222 21 25 37 52 36 59 -2 9
13 15 44 19 70 9 76 19 49 82 -12 29 -23 57 -24 63 -1 5 38 30 86 56 95 49
107 60 107 99 0 38 15 57 33 42 12 -10 26 -8 68 8 72 27 75 30 81 68 4 25 1
35 -11 40 -38 13 -130 78 -177 124 l-52 50 5 87 4 86 -49 -54 c-51 -55 -193
-321 -231 -428 -10 -29 -20 -51 -23 -48 -6 6 37 117 66 174 9 17 14 37 10 43
-4 6 -3 8 3 5 12 -8 66 101 57 115 -4 7 -2 8 4 4 8 -4 16 3 22 20 12 30 4 46
-11 24 -9 -12 -10 -12 -5 3 3 9 1 17 -4 17 -6 0 -10 5 -10 11 0 8 5 8 15 -1
11 -9 15 -9 15 -1 0 20 -30 24 -44 6 -12 -17 -42 -13 -32 4 3 4 -2 8 -10 8
-10 0 -11 -4 -4 -11 14 -14 13 -23 -6 -30 -12 -5 -15 -2 -10 11 6 15 5 16 -5
6 -7 -7 -21 -13 -31 -13 -10 0 -18 -4 -18 -9 0 -5 9 -7 20 -4 10 3 25 -1 33
-8 19 -20 28 -49 16 -49 -7 0 -9 -9 -6 -21 3 -12 3 -18 0 -15 -11 11 -33 -24
-33 -53 0 -24 -4 -31 -19 -31 -11 0 -23 -4 -26 -10 -9 -15 -25 -12 -25 4 0 11
-15 14 -60 13 -33 0 -60 -5 -60 -9 0 -4 -7 -8 -15 -8 -8 0 -15 6 -15 13 0 8
-4 7 -10 -3 -6 -10 -10 -11 -10 -2 0 13 -46 17 -54 4 -3 -5 5 -8 17 -8 15 1
22 -5 21 -17 -2 -21 58 -67 64 -49 2 7 8 12 14 12 7 0 7 -4 -1 -13 -12 -15 3
-37 25 -37 6 0 17 -7 25 -16 7 -8 20 -14 29 -11 10 2 16 -2 16 -14 0 -21 21
-34 -236 140 -118 80 -238 160 -267 179 -58 38 -60 57 -5 66 68 10 605 19 599
10 -6 -10 131 -9 141 0 3 3 -42 53 -99 111 -73 73 -111 105 -127 105 -13 0
-69 12 -125 26 -110 27 -160 55 -270 148 l-64 54 -119 -63z m-6 -445 c-7 -11
-19 -20 -26 -20 -7 0 -10 -4 -7 -10 3 -6 -1 -7 -9 -4 -9 3 -16 2 -16 -4 0 -6
6 -13 13 -15 7 -3 4 -6 -6 -6 -10 -1 -16 -5 -12 -10 4 -8 -24 -46 -81 -110 -2
-2 -11 2 -20 10 -16 13 -16 12 -6 -7 9 -17 7 -27 -11 -52 -26 -36 -62 -48 -64
-20 -2 15 2 16 17 8 16 -9 18 -8 14 5 -5 11 -2 14 12 8 16 -6 17 -5 4 9 -8 9
-17 13 -20 9 -3 -3 -12 -7 -20 -9 -8 -2 -20 -12 -28 -23 -7 -11 -18 -17 -23
-14 -5 4 -9 -2 -9 -12 -1 -17 -1 -17 -11 0 -5 9 -21 17 -34 17 -13 0 -27 5
-30 10 -3 6 3 10 13 10 15 0 19 5 15 20 -4 17 -8 18 -17 7 -7 -8 -22 -11 -42
-8 -27 5 -30 8 -18 19 8 7 14 8 14 2 0 -5 5 -10 10 -10 6 0 5 8 -2 20 -7 11
-15 15 -19 9 -3 -6 -10 -10 -14 -10 -10 2 -15 -20 -18 -76 -1 -23 -4 -41 -7
-41 -21 2 -29 -4 -23 -18 4 -11 8 -12 13 -4 5 8 9 7 13 -5 4 -9 3 -13 -3 -10
-15 9 -12 -1 15 -55 14 -28 23 -50 21 -50 -3 0 -22 34 -44 75 -21 41 -35 72
-31 69 14 -8 11 20 -3 35 -11 11 -10 12 2 5 26 -15 40 -13 40 6 0 22 -16 35
-25 20 -10 -16 -28 -12 -22 5 4 8 2 17 -4 20 -5 4 -7 11 -4 16 7 11 3 11 -19
3 -9 -3 -16 -10 -16 -15 0 -4 7 -6 15 -3 8 4 15 1 15 -6 0 -6 -4 -8 -10 -5
-13 8 -13 -1 0 -26 6 -10 8 -19 6 -19 -3 0 -17 24 -31 53 -14 28 -20 44 -12
35 12 -15 17 -15 31 -5 16 12 16 14 2 26 -14 12 -16 12 -10 -2 5 -14 2 -14
-19 -4 -14 6 -24 13 -23 15 2 1 104 29 227 62 123 32 251 68 284 78 81 27 88
27 73 2z m761 -13 c0 -9 -2 -9 -6 0 -3 9 -10 10 -23 3 -12 -6 -21 -6 -25 -1
-3 5 5 11 17 13 28 5 38 1 37 -15z m-12 -59 c-3 -8 -6 -5 -6 6 -1 11 2 17 5
13 3 -3 4 -12 1 -19z m-42 -68 c3 -6 -1 -7 -9 -4 -18 7 -21 14 -7 14 6 0 13
-4 16 -10z m-20 -40 c3 -5 1 -10 -4 -10 -6 0 -11 5 -11 10 0 6 2 10 4 10 3 0
8 -4 11 -10z m-108 -14 c-4 -9 1 -17 11 -20 13 -4 13 -4 -2 -3 -19 2 -33 37
-14 37 6 0 8 -6 5 -14z m-113 -15 c4 -5 -4 -7 -16 -3 -16 4 -19 2 -13 -8 5 -9
4 -11 -4 -6 -6 4 -9 12 -6 17 8 12 32 12 39 0z m40 -7 c3 -8 2 -12 -4 -9 -6 3
-10 10 -10 16 0 14 7 11 14 -7z m61 -14 c28 0 55 -9 55 -19 0 -4 -7 -8 -15 -8
-8 0 -12 4 -9 9 4 5 -10 6 -31 2 -27 -5 -36 -4 -31 5 4 6 2 11 -3 11 -6 0 -11
8 -11 18 1 16 1 16 11 0 5 -10 21 -18 34 -18z m95 -25 c0 -5 -5 -3 -10 5 -5 8
-10 20 -10 25 0 6 5 3 10 -5 5 -8 10 -19 10 -25z m-106 -16 c14 11 16 11 16
-3 0 -9 -5 -16 -11 -16 -5 0 -7 -4 -4 -10 3 -6 -1 -7 -9 -4 -9 3 -16 10 -16
14 0 5 -10 12 -21 15 -16 6 -18 9 -8 15 8 5 17 2 25 -8 10 -14 14 -14 28 -3z
m-799 -28 c-3 -3 -10 1 -15 9 -8 13 -10 13 -10 1 0 -8 -3 -12 -6 -8 -3 3 -3
11 1 17 5 8 11 8 21 -1 8 -6 12 -14 9 -18z m-17 -19 c15 12 16 11 3 -4 -14
-19 -32 -15 -30 5 0 8 2 8 6 -1 4 -10 8 -10 21 0z m-161 -74 c-3 -8 -6 -5 -6
6 -1 11 2 17 5 13 3 -3 4 -12 1 -19z m-1512 -208 c10 -11 16 -20 13 -20 -3 0
-13 9 -23 20 -10 11 -16 20 -13 20 3 0 13 -9 23 -20z m968 -94 c42 -12 75 -24
73 -27 -2 -2 15 -5 37 -6 23 0 87 -6 142 -11 l100 -11 -97 3 c-87 2 -95 0 -70
-11 l27 -13 -32 3 c-18 2 -30 0 -27 -5 3 -4 12 -8 20 -8 18 0 14 -21 -9 -38
-9 -7 -15 -18 -12 -23 4 -5 -7 -9 -24 -9 -16 0 -32 6 -34 13 -3 7 -6 5 -6 -5
-1 -10 -8 -18 -16 -18 -8 0 -12 6 -9 14 3 7 -2 16 -12 20 -14 5 -15 4 -5 -8 8
-9 8 -16 2 -20 -6 -4 -17 6 -25 21 -20 37 -20 21 -1 -17 9 -17 12 -30 8 -30
-5 0 -31 48 -58 105 -28 58 -50 105 -50 105 0 -1 35 -11 78 -24z m262 -76 c-3
-5 -12 -10 -18 -10 -7 0 -6 4 3 10 19 12 23 12 15 0z m-155 -100 c-20 -13 -33
-13 -25 0 3 6 14 10 23 10 15 0 15 -2 2 -10z m-48 -72 c11 -24 15 -38 9 -33
-5 6 -17 28 -27 50 -21 52 -7 38 18 -17z m-497 -207 c3 -10 14 -63 25 -118 18
-91 18 -99 3 -110 -25 -20 -7 -15 40 8 40 21 201 129 277 186 34 25 33 25 -5
-13 -22 -22 -51 -46 -64 -55 -14 -9 -25 -27 -27 -43 -2 -23 0 -25 12 -15 11 9
14 9 14 0 0 -7 5 -9 10 -6 6 3 10 3 11 -2 0 -4 2 -16 4 -26 2 -9 -1 -15 -6
-11 -5 3 -9 -2 -9 -10 0 -9 -5 -16 -11 -16 -6 0 -8 7 -5 16 5 13 4 14 -7 6 -8
-7 -18 -8 -22 -4 -5 4 -5 2 -1 -5 3 -6 1 -13 -6 -16 -7 -2 -3 -2 9 -1 12 2 23
0 25 -6 2 -5 25 -11 51 -14 34 -3 72 -18 125 -49 120 -69 159 -90 139 -74 -14
12 -21 46 -33 176 -9 89 -14 164 -11 167 3 3 13 -2 24 -10 57 -49 146 -110
198 -137 33 -17 48 -28 33 -25 -26 6 -27 5 -18 -19 5 -14 9 -48 9 -76 -1 -27
1 -52 4 -56 4 -3 35 21 71 54 100 94 286 178 381 171 18 -1 40 4 49 11 13 11
23 9 61 -15 25 -16 69 -44 99 -63 30 -19 60 -44 67 -57 l12 -23 42 24 c53 32
61 31 118 -5 44 -27 50 -29 70 -15 12 8 51 21 85 30 51 13 73 14 113 6 28 -6
70 -11 95 -11 40 0 51 -5 97 -49 50 -48 54 -49 96 -44 32 4 42 3 37 -5 -4 -7
-2 -12 3 -12 23 0 10 21 -21 34 -18 8 -27 15 -20 15 7 1 11 5 7 10 -3 5 -1 13
5 16 6 4 9 2 8 -3 -2 -5 9 -21 25 -35 29 -28 36 -23 12 9 -24 32 -17 34 15 4
26 -24 33 -27 54 -17 19 9 22 15 14 25 -6 7 -17 11 -24 8 -13 -5 -54 33 -54
51 0 15 28 25 35 13 4 -6 -2 -10 -12 -11 -18 -1 -17 -1 27 -15 12 -4 12 -6 0
-14 -10 -6 -4 -9 18 -8 18 1 38 -4 44 -10 9 -9 9 -12 -2 -12 -7 0 -11 -3 -7
-6 12 -12 27 7 18 24 -5 9 -12 24 -14 33 -4 12 -13 15 -32 11 -22 -4 -26 -1
-23 13 1 10 9 20 17 23 10 3 12 0 8 -12 -4 -9 -2 -16 3 -16 6 0 10 6 10 14 0
8 5 18 10 21 6 4 10 3 9 -2 -4 -23 2 -43 14 -41 6 2 11 -5 11 -14 -2 -18 29
-34 46 -23 16 10 12 -2 -7 -21 -16 -15 -16 -17 -2 -12 9 4 22 1 29 -5 8 -7 10
-7 7 -1 -3 6 0 11 8 11 8 0 12 -4 9 -9 -3 -4 9 -8 26 -8 21 0 29 4 24 12 -5 7
-3 8 5 4 7 -5 10 -15 6 -23 -4 -13 -3 -14 10 -3 8 7 15 8 15 3 0 -13 -77 -45
-98 -41 -9 2 -16 11 -14 19 2 8 0 11 -3 7 -4 -4 -15 -3 -24 2 -24 12 -39 0
-43 -35 -2 -24 -14 -36 -62 -66 -55 -32 -89 -67 -53 -53 10 3 26 -10 47 -41
33 -47 33 -49 5 -116 -5 -13 -1 -16 18 -12 24 5 25 2 31 -64 4 -37 3 -81 -2
-98 -11 -33 -52 -138 -57 -143 -1 -1 -36 6 -76 17 -74 20 -115 21 -264 7 -38
-3 -63 -3 -55 1 20 9 36 29 65 85 23 43 23 48 9 63 -14 13 -35 16 -118 13 -55
-2 -109 -7 -118 -12 -19 -9 -16 -20 -49 154 -25 131 -36 162 -35 97 1 -25 4
-43 8 -41 4 3 7 -20 6 -50 -1 -30 4 -61 11 -69 16 -21 -5 -27 -87 -27 -50 1
-63 3 -49 11 13 8 17 23 17 67 l0 57 -43 19 c-65 28 -209 37 -250 14 -12 -6
-74 -14 -136 -16 -98 -3 -117 -1 -127 12 -11 15 -14 14 -40 -7 -16 -13 -48
-36 -71 -50 l-42 -27 -24 33 c-14 17 -48 78 -77 135 -38 73 -57 101 -67 98 -8
-4 -19 -6 -25 -6 -6 0 -7 -7 -4 -16 4 -12 2 -15 -9 -10 -8 3 -14 2 -14 -2 4
-24 -3 -34 -18 -28 -10 4 -14 4 -11 0 4 -3 1 -21 -7 -39 -7 -19 -10 -37 -7
-41 4 -4 1 -4 -7 1 -11 6 -13 3 -9 -13 7 -24 -13 -26 -23 -3 -4 11 -7 9 -11
-7 -4 -12 -2 -20 3 -16 5 3 9 -2 9 -11 0 -9 -4 -14 -9 -11 -5 3 -12 -1 -15 -9
-3 -9 1 -18 9 -21 8 -4 12 -10 9 -16 -3 -5 -11 -4 -20 3 -10 8 -18 9 -27 0 -8
-6 -18 -7 -22 -3 -5 4 -5 1 -1 -6 4 -7 12 -10 17 -7 11 7 11 3 3 -19 -3 -9
-12 -16 -20 -16 -8 0 -14 -2 -14 -4 0 -2 -3 -11 -6 -20 -3 -9 -1 -16 6 -16 6
0 9 4 6 9 -3 5 1 11 9 14 12 5 12 2 3 -18 -10 -23 -12 -23 -35 -8 -13 9 -36
40 -50 69 -22 46 -34 58 -77 78 -28 13 -76 42 -106 65 -54 42 -56 43 -120 37
-36 -3 -114 -8 -175 -12 -128 -8 -129 -23 8 126 l88 95 -40 3 c-22 2 -46 11
-55 21 -22 24 -88 210 -82 228 3 8 1 11 -4 8 -6 -3 -10 -2 -10 4 0 12 15 17
66 20 34 1 44 -2 49 -18z m3090 -81 c4 -6 2 -9 -4 -8 -5 2 -17 -6 -25 -17 -16
-19 -16 -19 -5 8 13 28 24 34 34 17z m-2785 -45 c0 -8 -4 -15 -8 -15 -5 0 -9
7 -9 15 0 8 4 15 9 15 4 0 8 -7 8 -15z m120 -10 c-7 -9 -15 -13 -19 -10 -3 3
1 10 9 15 21 14 24 12 10 -5z m2620 0 c0 -2 -11 -15 -25 -29 -29 -29 -32 -25
-7 9 15 22 32 32 32 20z m-636 -21 c3 -8 2 -12 -4 -9 -6 3 -10 10 -10 16 0 14
7 11 14 -7z m-2067 -19 c0 -8 -4 -12 -9 -9 -5 3 -6 10 -3 15 9 13 12 11 12 -6z
m2643 -19 c0 -3 -4 -8 -10 -11 -5 -3 -10 -1 -10 4 0 6 5 11 10 11 6 0 10 -2
10 -4z m-740 -11 c0 -2 -10 -9 -22 -15 -22 -11 -22 -10 -4 4 21 17 26 19 26
11z m-1905 -27 c6 -4 -3 -8 -18 -8 -23 0 -26 2 -15 14 7 8 15 11 18 8 3 -4 10
-10 15 -14z m2640 2 c-3 -5 -12 -10 -18 -10 -7 0 -6 4 3 10 19 12 23 12 15 0z
m-30 -20 c3 -5 1 -10 -4 -10 -6 0 -11 5 -11 10 0 6 2 10 4 10 3 0 8 -4 11 -10z
m-3272 -223 c3 -8 -1 -14 -8 -14 -7 0 -11 6 -8 14 3 7 6 13 8 13 2 0 5 -6 8
-13z m3283 -95 c-10 -2 -22 0 -28 6 -6 6 0 7 19 4 21 -5 23 -7 9 -10z m-1459
-49 c-3 -10 -5 -4 -5 12 0 17 2 24 5 18 2 -7 2 -21 0 -30z m-177 -10 c0 -20
-2 -34 -6 -31 -4 5 -45 -6 -226 -62 -27 -8 -28 -7 -28 26 0 28 4 34 23 34 44
1 221 47 225 58 7 22 12 12 12 -25z m3058 -73 c-12 -35 -15 -36 -46 -14 l-23
16 33 18 c41 22 50 18 36 -20z m-3598 -74 c0 -9 -30 -14 -35 -6 -4 6 3 10 14
10 12 0 21 -2 21 -4z m47 -48 c-3 -8 -6 -5 -6 6 -1 11 2 17 5 13 3 -3 4 -12 1
-19z m1867 -22 c-3 -9 -10 -16 -15 -16 -5 0 -4 9 3 20 14 22 21 20 12 -4z
m-2766 -68 c19 -21 39 -35 46 -31 6 3 8 3 4 -2 -11 -11 12 -36 25 -28 6 3 7 1
3 -5 -12 -19 51 -57 92 -55 l37 1 -35 -7 c-45 -9 -60 1 -175 120 -49 52 -77
82 -61 69 16 -14 45 -42 64 -62z m2732 57 c0 -2 -9 -3 -19 -2 -11 0 -18 5 -15
9 4 6 34 0 34 -7z m-1723 -1 c-3 -3 -12 -4 -19 -1 -8 3 -5 6 6 6 11 1 17 -2
13 -5z m892 -49 c1 -17 -1 -17 -9 -5 -5 8 -9 26 -9 40 0 23 1 23 9 5 5 -11 9
-29 9 -40z m-944 35 c-11 -5 -31 -8 -45 -8 -23 0 -22 1 5 8 42 11 65 11 40 0z
m2160 -89 c1 -11 -3 -17 -8 -14 -5 3 -4 -4 2 -15 14 -26 14 -28 -5 -46 -14
-15 -14 -16 2 -16 10 0 14 -3 10 -7 -4 -4 -27 -6 -51 -4 -25 1 -45 1 -45 -1
-5 -38 -6 -191 -2 -163 5 26 10 36 15 28 5 -7 5 -18 2 -23 -4 -6 -3 -10 2 -9
4 1 15 1 23 0 13 -1 13 -2 0 -11 -12 -8 -12 -10 5 -10 13 0 16 -3 8 -8 -7 -4
-9 -13 -4 -20 5 -9 16 -1 35 28 27 41 40 48 52 28 4 -7 3 -8 -4 -4 -16 9 -15
-7 0 -22 7 -7 8 -12 3 -12 -6 0 -5 -4 2 -8 8 -5 8 -16 -2 -44 -7 -21 -9 -35
-4 -32 8 4 12 -7 11 -26 0 -3 24 -3 54 -2 30 2 54 2 54 -1 0 -3 -12 -19 -27
-35 -69 -72 -84 -92 -77 -104 5 -8 2 -9 -9 -5 -16 6 -16 5 -1 -18 23 -36 14
-56 -36 -74 -39 -14 -47 -22 -60 -60 l-15 -44 -89 7 c-49 3 -113 6 -143 6 -29
0 -53 4 -53 8 0 13 156 134 247 192 79 50 81 53 71 78 -16 37 -48 71 -48 52
-1 -8 -7 -1 -15 15 l-13 30 2 -33 c2 -20 -4 -41 -15 -56 -11 -13 -19 -29 -19
-34 0 -18 -202 -182 -224 -182 -3 0 1 17 9 38 26 65 75 240 126 447 27 110 54
210 59 223 6 13 29 31 52 41 l42 18 40 -39 c22 -21 40 -47 41 -57z m-2034 72
c13 -16 12 -17 -3 -4 -10 7 -18 15 -18 17 0 8 8 3 21 -13z m1669 2 c0 -8 -4
-24 -10 -37 -5 -13 -23 -60 -40 -105 -19 -49 -37 -83 -45 -83 -13 0 -35 57
-35 92 0 9 -5 20 -10 23 -20 12 -23 -29 -10 -123 19 -136 19 -132 -11 -193
-15 -30 -30 -73 -34 -95 -3 -21 -8 -49 -11 -61 -4 -23 -203 -180 -599 -472
l-219 -163 -33 243 c-18 134 -34 252 -37 262 -2 10 12 45 33 80 21 34 77 127
124 207 96 163 131 206 199 245 l48 27 21 -36 c13 -22 32 -39 48 -42 14 -4 35
-14 46 -23 19 -16 23 -16 64 5 l43 21 -23 21 c-25 24 -55 30 -43 10 5 -10 4
-10 -6 -1 -7 6 -9 16 -6 22 5 7 24 1 56 -17 48 -26 49 -27 67 -8 10 10 12 16
6 12 -7 -4 -13 -2 -13 4 0 6 10 8 23 5 32 -8 245 74 248 95 1 6 3 15 4 20 1 6
3 26 4 45 l1 35 75 0 c59 0 75 -3 75 -15z m460 -36 c-24 -46 -34 -135 -17
-146 6 -3 7 -1 3 5 -4 7 -2 12 4 12 7 0 9 -7 6 -16 -4 -9 -1 -24 6 -33 7 -8
-2 -4 -20 9 -28 22 -32 30 -28 61 4 37 55 163 63 155 2 -2 -5 -23 -17 -47z
m-1263 -23 c4 -30 1 -36 -13 -36 -16 0 -16 -1 2 -16 16 -14 15 -13 -9 1 -23
13 -31 14 -45 3 -9 -7 -6 0 7 15 24 27 49 38 35 15 -4 -7 -3 -8 5 -4 6 4 9 12
5 17 -3 5 -8 22 -10 37 -4 20 -2 24 6 16 7 -7 14 -28 17 -48z m-1517 -8 c-37
-49 -37 -41 0 14 14 20 26 35 29 33 2 -2 -11 -23 -29 -47z m106 -9 c48 -93 59
-218 18 -202 -8 3 -12 9 -9 13 3 5 0 12 -6 16 -8 5 -9 3 -4 -6 6 -9 4 -11 -5
-5 -10 6 -10 11 4 20 13 10 14 14 3 24 -8 6 -18 7 -22 3 -5 -4 -5 -1 -1 5 9
16 43 -3 50 -27 2 -8 4 -4 5 10 1 24 -30 125 -50 162 -5 10 -7 18 -5 18 3 0
13 -14 22 -31z m782 -44 c100 -39 102 -40 102 -73 0 -42 -20 -122 -30 -122
-10 0 -230 231 -230 241 0 11 50 -4 158 -46z m-247 -28 c26 -40 107 -165 181
-278 l134 -206 -25 -182 c-14 -99 -28 -181 -32 -181 -3 0 -108 103 -232 229
-196 200 -236 245 -312 360 -48 74 -84 138 -81 146 10 28 88 75 123 75 28 0
33 3 33 24 0 22 5 25 60 31 47 6 64 12 78 31 9 13 19 23 22 23 3 0 26 -32 51
-72z m3251 10 c-2 -31 4 -83 12 -115 14 -57 64 -160 94 -194 8 -10 13 -18 9
-18 -3 0 -14 -3 -24 -6 -14 -6 -16 -4 -6 6 10 10 8 19 -8 41 -26 36 -79 144
-79 161 0 7 -4 20 -10 28 -7 12 -12 12 -29 -4 -19 -17 -19 -17 -16 1 1 10 8
17 14 16 15 -4 14 79 -1 96 -11 11 -10 12 1 6 11 -6 13 -2 9 19 -5 23 -2 27
16 24 19 -3 21 -8 18 -61z m-3838 45 c3 -5 -1 -9 -9 -9 -8 0 -12 4 -9 9 3 4 7
8 9 8 2 0 6 -4 9 -8z m40 -17 c3 -8 0 -14 -6 -12 -7 1 -12 -11 -12 -29 0 -23
-4 -30 -14 -27 -7 3 -26 -7 -43 -23 -17 -16 -29 -22 -29 -14 0 7 -3 10 -6 7
-4 -4 -1 -14 6 -22 10 -12 10 -19 2 -27 -7 -7 -12 -16 -12 -21 0 -4 10 4 23
18 21 25 23 25 47 8 14 -10 31 -18 39 -20 8 -1 21 -9 30 -18 15 -15 13 -16
-24 -13 -32 3 -41 8 -43 25 -5 34 -29 35 -53 1 l-22 -30 -23 48 c-33 70 -35
97 -12 130 12 17 17 21 13 9 -12 -32 -14 -66 -4 -59 5 3 15 2 22 -3 21 -13 36
-12 49 5 11 13 11 14 -2 7 -13 -8 -13 -7 -1 8 13 17 9 20 -19 19 -3 0 -11 6
-18 14 -18 19 6 19 31 -1 21 -15 51 -9 40 8 -3 6 -1 7 6 3 6 -4 14 0 17 8 8
20 10 20 18 1z m1476 1 c0 -2 -9 -6 -20 -9 -11 -3 -18 -1 -14 4 5 9 34 13 34
5z m73 -36 c11 -13 10 -13 -5 -1 -12 8 -18 9 -18 2 0 -20 -48 -24 -67 -5 -17
16 -17 17 -1 11 10 -3 20 -2 23 3 9 14 55 8 68 -10z m-1667 -5 c-3 -9 0 -15 9
-15 7 0 16 -4 19 -9 8 -13 -22 -7 -35 6 -6 6 -8 16 -5 22 10 16 19 13 12 -4z
m343 5 c10 0 17 -8 18 -20 2 -23 -35 -28 -55 -8 -18 18 -15 41 4 34 9 -3 23
-6 33 -6z m1366 0 c3 -5 -1 -10 -9 -10 -9 0 -16 5 -16 10 0 6 4 10 9 10 6 0
13 -4 16 -10z m61 -18 c-10 -2 -22 0 -28 6 -6 6 0 7 19 4 21 -5 23 -7 9 -10z
m114 -24 c0 -13 -23 -5 -28 10 -2 7 2 10 12 6 9 -3 16 -11 16 -16z m-500 2 c0
-11 -67 -77 -122 -122 l-38 -30 0 44 0 44 78 36 c42 20 78 37 80 37 1 1 2 -3
2 -9z m-1306 -22 c-3 -5 -10 -5 -16 -2 -7 4 -8 2 -4 -5 4 -6 12 -9 17 -6 5 4
16 2 25 -3 12 -7 3 -9 -30 -9 -43 0 -45 1 -31 17 15 17 49 24 39 8z m174 -10
c-2 -17 -10 -23 -28 -23 -15 0 -25 6 -26 15 -1 24 6 30 32 30 21 0 25 -4 22
-22z m-1059 -135 c18 -8 9 -74 -14 -110 l-18 -26 -11 35 c-7 19 -20 45 -29 59
-9 13 -17 36 -17 51 l0 28 38 -16 c20 -9 43 -18 51 -21z m1021 -2 c24 -17 73
-81 67 -87 -2 -2 -243 50 -269 58 -8 3 0 16 19 35 30 29 32 30 94 21 35 -4 75
-16 89 -27z m3194 -21 c60 -6 125 -18 144 -26 30 -12 33 -12 28 1 -3 8 -1 15
4 15 6 0 10 -15 10 -34 0 -31 3 -35 73 -67 73 -33 92 -52 99 -104 5 -29 17
-45 34 -45 9 0 12 5 8 11 -4 8 0 8 15 0 11 -7 21 -17 21 -23 0 -7 -5 -6 -15 2
-27 23 -17 -8 13 -37 15 -16 28 -37 27 -48 0 -11 4 -23 8 -26 4 -3 8 -17 8
-30 1 -13 5 -54 11 -91 5 -37 10 -109 11 -160 l2 -93 -29 -2 c-17 -1 -37 -10
-45 -19 -9 -9 -10 -14 -3 -10 6 4 12 4 12 1 0 -13 -26 -32 -55 -39 -17 -4 -39
-9 -50 -13 l-20 -5 20 15 c17 13 18 18 6 29 -12 11 -13 11 -6 -2 5 -8 4 -12 0
-7 -12 10 -17 50 -6 43 5 -3 11 1 15 9 7 18 -11 20 -34 3 -9 -7 -3 -2 13 12
16 14 44 38 61 54 26 24 27 26 6 13 -24 -14 -26 -13 -26 4 0 11 3 19 6 19 8 0
6 73 -3 86 -4 7 -42 24 -84 40 -43 15 -82 31 -88 36 -6 6 -3 6 9 2 15 -6 17
-4 12 14 -5 16 -4 20 6 17 9 -4 14 2 14 15 0 11 -5 20 -10 20 -17 0 38 52 108
101 38 27 65 49 60 49 -6 0 -68 -29 -138 -65 -146 -74 -116 -74 -322 -8 l-110
35 -37 -25 c-29 -20 -33 -26 -19 -30 9 -3 46 -17 82 -32 46 -18 55 -24 30 -20
-26 5 -31 4 -20 -4 13 -9 12 -11 -3 -11 -10 0 -15 -5 -12 -10 4 -6 10 -8 15
-5 4 2 13 -8 20 -24 6 -16 21 -32 32 -35 17 -4 19 -8 9 -19 -9 -12 -9 -16 2
-20 8 -3 17 -24 21 -47 4 -24 11 -38 17 -35 7 5 6 11 -2 21 -8 10 -7 17 5 29
9 9 16 12 16 6 0 -5 -5 -13 -10 -16 -6 -4 -7 -11 -4 -17 5 -7 12 -4 21 7 7 11
13 16 13 11 0 -4 -18 -31 -41 -61 -37 -49 -45 -84 -16 -69 7 3 4 -1 -5 -9 -10
-8 -14 -18 -10 -22 4 -5 1 -5 -6 -1 -7 5 -21 2 -31 -6 -9 -7 -7 -3 6 9 18 17
21 26 14 45 -10 23 -10 23 -10 1 -1 -12 -6 -25 -13 -29 -8 -5 -9 -2 -5 10 4
11 3 15 -4 11 -6 -4 -8 -13 -5 -20 2 -7 -10 -27 -28 -44 -35 -34 -49 -39 -40
-16 4 8 10 13 14 10 5 -3 8 4 7 15 -1 11 -5 20 -8 20 -4 0 -5 15 -2 34 5 32 2
36 -38 59 -24 14 -73 37 -109 51 -36 15 -74 31 -84 37 -15 9 -18 8 -13 -4 3
-9 3 -17 -1 -19 -15 -7 -54 -97 -46 -109 5 -8 3 -10 -6 -4 -9 5 -10 2 -5 -14
8 -25 -3 -64 -16 -56 -5 4 -9 -1 -9 -10 0 -9 5 -13 10 -10 6 3 10 -4 10 -17 0
-18 -2 -20 -10 -8 -8 13 -10 12 -10 -2 0 -10 -5 -18 -11 -18 -6 0 -8 7 -5 16
3 8 2 12 -3 9 -11 -6 -5 142 9 255 6 41 12 131 15 200 3 69 8 153 11 186 l5
61 43 -4 c43 -5 43 -5 61 38 10 24 18 47 17 51 -4 19 38 32 128 36 61 3 97 8
94 14 -4 6 4 3 17 -5 14 -9 72 -20 133 -27z m413 -27 c-2 -16 -4 -5 -4 22 0
28 2 40 4 28 2 -13 2 -35 0 -50z m-4480 -29 c9 -8 37 -11 93 -8 63 3 80 0 80
-11 0 -7 8 -16 18 -18 9 -3 2 -5 -15 -6 -18 0 -33 3 -33 7 0 17 -60 0 -60 -17
-1 -9 -11 -41 -23 -71 l-23 -54 167 -83 c108 -53 176 -94 193 -113 25 -30 54
-113 76 -215 14 -67 78 -489 74 -493 -1 -2 -22 5 -47 16 -58 26 -113 76 -209
191 -90 108 -87 90 -37 266 33 113 36 150 14 159 -8 3 -15 14 -15 25 0 15 -5
18 -21 14 -20 -6 -21 -7 -5 -19 16 -11 15 -16 -17 -61 -19 -26 -42 -63 -52
-82 -17 -33 -18 -34 -32 -15 -34 45 -224 356 -249 407 l-27 55 33 76 33 76 36
-6 c19 -4 41 -13 48 -20z m4967 -16 c-9 -14 -23 2 -17 18 4 12 8 13 14 3 4 -7
5 -17 3 -21z m-429 13 c-3 -2 3 -10 13 -18 12 -10 8 -9 -15 2 -38 18 -40 21
-13 21 10 0 17 -2 15 -5z m245 -1 c0 -5 -9 -24 -20 -42 -15 -25 -20 -29 -25
-16 -10 26 -1 53 18 52 9 -1 14 2 11 7 -3 5 0 9 5 9 6 0 11 -4 11 -10z m-4303
-94 c-34 -46 -65 -81 -70 -79 -4 2 -23 35 -42 73 l-34 68 87 7 c76 5 110 9
119 14 2 0 -25 -37 -60 -83z m4118 64 c3 -5 2 -10 -4 -10 -5 0 -13 5 -16 10
-3 6 -2 10 4 10 5 0 13 -4 16 -10z m45 -8 c0 -5 -7 -9 -15 -9 -8 0 -15 4 -15
9 0 4 7 8 15 8 8 0 15 -4 15 -8z m-5020 -34 c25 -6 54 -16 65 -23 25 -15 149
-271 205 -419 50 -133 41 -153 -32 -73 -48 51 -57 64 -38 52 19 -12 10 1 -22
31 -20 19 -29 23 -25 12 9 -25 5 -23 -29 14 -16 17 -24 29 -19 26 6 -3 19 -2
30 3 15 6 10 8 -21 8 -44 1 -59 16 -43 42 14 22 11 49 -6 49 -18 0 -31 24 -40
73 -8 42 -42 75 -117 113 -27 14 -46 29 -43 33 3 5 -2 22 -10 37 -8 16 -15 33
-15 38 0 9 89 0 160 -16z m693 -95 c19 -60 34 -109 33 -110 -1 -1 -59 27 -130
64 -122 63 -127 67 -121 92 13 50 28 56 132 60 l52 1 34 -107z m327 46 c0 -9
41 -78 91 -154 76 -115 94 -149 105 -204 l14 -65 -57 -96 c-31 -52 -66 -110
-79 -128 l-22 -33 -20 58 c-133 379 -171 496 -166 506 4 7 32 45 62 85 54 71
71 78 72 31z m183 -36 c19 -6 21 -52 9 -148 l-7 -50 -66 100 c-65 98 -89 138
-89 149 0 3 30 -7 68 -21 37 -14 75 -28 85 -30z m3747 -12 c-6 -12 -8 -27 -4
-34 5 -9 3 -9 -7 1 -11 10 -11 16 -1 33 7 11 10 25 6 32 -5 9 -4 9 5 1 10 -9
10 -17 1 -33z m-30 19 c-8 -5 -19 -10 -25 -10 -5 0 -3 5 5 10 8 5 20 10 25 10
6 0 3 -5 -5 -10z m-3592 -55 c104 -33 111 -42 79 -97 -37 -63 -116 -168 -126
-168 -18 0 -25 37 -30 163 -3 70 -5 127 -4 127 1 0 38 -11 81 -25z m3586 -27
c-3 -4 -9 -8 -15 -8 -5 0 -9 4 -9 8 0 5 7 9 15 9 8 0 12 -4 9 -9z m-3395 -156
c55 -73 218 -304 309 -438 l41 -61 -39 -303 c-21 -166 -41 -304 -43 -306 -5
-6 -590 255 -603 269 -6 7 -23 69 -38 140 l-28 127 62 138 c56 124 162 333
236 469 16 28 32 49 36 47 5 -3 34 -40 67 -82z m2874 21 c-7 -2 -19 -2 -25 0
-7 3 -2 5 12 5 14 0 19 -2 13 -5z m-4402 -328 c6 -11 -4 -4 -21 15 -17 19 -35
44 -41 55 -6 11 4 4 21 -15 17 -19 35 -44 41 -55z m3093 57 c3 -5 -1 -9 -9 -9
-8 0 -12 4 -9 9 3 4 7 8 9 8 2 0 6 -4 9 -8z m-2720 -119 c70 -173 71 -159 -19
-155 -64 3 -74 6 -64 18 6 8 20 14 30 14 19 0 59 49 59 72 0 7 -8 1 -18 -14
-18 -27 -18 -27 -33 -7 -7 11 -13 25 -11 30 1 5 -2 9 -6 9 -12 0 -62 78 -62
96 0 12 54 54 71 54 3 0 27 -53 53 -117z m4095 88 c20 -5 18 -8 -21 -18 -30
-8 -56 -24 -77 -48 -17 -20 -31 -32 -31 -27 0 16 63 72 89 79 l26 7 -25 7
c-19 5 -20 7 -5 7 11 0 31 -3 44 -7z m751 -16 c-7 -8 -21 -15 -31 -15 -11 0
-19 -4 -19 -9 0 -5 -7 -11 -15 -15 -13 -4 -14 -2 -5 14 6 11 15 21 20 21 6 1
14 2 19 3 5 0 13 4 17 9 14 14 26 7 14 -8z m-1412 -25 c39 -24 40 -32 7 -50
-22 -12 -27 -11 -40 6 -15 20 -20 64 -7 64 4 0 22 -9 40 -20z m922 -3 c0 -2
-19 -18 -42 -36 l-43 -32 39 35 c37 34 46 40 46 33z m-747 -64 c-7 -2 -19 -2
-25 0 -7 3 -2 5 12 5 14 0 19 -2 13 -5z m-156 -49 c-13 -24 -17 -26 -22 -12
-9 22 13 64 27 50 6 -6 5 -19 -5 -38z m179 24 c4 -5 1 -15 -5 -21 -19 -19 -12
-31 8 -13 17 16 20 14 55 -24 24 -27 36 -50 36 -69 0 -33 -1 -34 -100 -52 -36
-6 -78 -18 -93 -26 -16 -8 -31 -12 -33 -10 -6 5 35 196 46 218 9 17 75 15 86
-3z m331 0 c-3 -8 -6 -5 -6 6 -1 11 2 17 5 13 3 -3 4 -12 1 -19z m453 3 c0 -4
-13 -6 -30 -3 -16 2 -30 7 -30 11 0 4 14 6 30 3 17 -2 30 -7 30 -11z m171 -18
c13 -16 12 -17 -3 -4 -10 7 -18 15 -18 17 0 8 8 3 21 -13z m-1381 -39 c0 -7 8
-15 18 -18 10 -4 32 -20 48 -38 l29 -31 -47 31 c-25 18 -59 37 -75 43 -25 9
-26 11 -10 20 10 6 14 15 10 22 -4 7 0 6 10 -2 9 -7 17 -19 17 -27z m750 32
c0 -3 -4 -8 -10 -11 -5 -3 -10 -1 -10 4 0 6 5 11 10 11 6 0 10 -2 10 -4z
m-4326 -43 l19 -23 -29 1 c-24 0 -26 2 -10 8 14 5 16 10 8 15 -7 4 -12 12 -12
18 0 6 1 9 3 7 1 -2 11 -14 21 -26z m4232 -29 c-3 -21 -34 -44 -58 -44 -18 0
-18 1 -1 25 10 13 27 25 38 25 19 1 19 2 -2 12 -12 6 -24 17 -27 25 -4 10 4 8
23 -6 16 -12 28 -28 27 -37z m-711 18 c-3 -3 -11 0 -18 7 -9 10 -8 11 6 5 10
-3 15 -9 12 -12z m-514 -32 l35 0 31 -87 c17 -49 37 -103 44 -121 13 -30 12
-37 -11 -75 -13 -23 -54 -98 -90 -166 l-65 -125 -209 -133 c-116 -73 -211
-131 -213 -129 -2 1 -9 70 -17 152 -8 82 -18 167 -21 189 -6 39 -3 44 85 155
49 63 135 174 191 246 l100 130 52 -17 c29 -10 68 -18 88 -19z m382 -22 c15
-30 14 -34 -1 -51 -20 -23 -139 -90 -150 -85 -5 1 -2 34 7 72 14 61 20 71 46
82 53 23 81 18 98 -18z m105 -99 c-40 -57 -98 -144 -129 -193 -53 -87 -59 -93
-132 -131 -41 -22 -78 -37 -82 -34 -3 4 5 58 19 120 30 135 27 132 211 234 70
39 139 80 153 92 15 12 29 20 30 18 2 -2 -29 -50 -70 -106z m162 71 c9 -16 21
-20 66 -20 54 0 54 0 48 -27 -17 -70 -32 -98 -50 -99 -18 -1 -229 -107 -308
-154 -44 -27 -43 -22 19 60 22 30 54 75 69 100 52 81 117 160 131 160 8 0 19
-9 25 -20z m-454 -21 c-7 -38 -36 -99 -46 -99 -11 0 -27 22 -39 52 -9 25 -7
28 32 52 55 33 61 32 53 -5z m1164 6 c0 -2 -10 -9 -22 -15 -22 -11 -22 -10 -4
4 21 17 26 19 26 11z m-23 -50 c0 -11 -4 -12 -14 -4 -7 6 -13 13 -13 15 0 2 6
4 13 4 8 0 14 -7 14 -15z m-4217 -25 c0 -4 17 -14 38 -23 26 -11 86 -17 197
-22 l159 -6 61 -57 c33 -32 81 -73 107 -91 l47 -34 -202 -92 c-111 -51 -220
-101 -242 -112 l-40 -21 -195 45 c-107 24 -210 47 -227 50 -18 3 -33 10 -33
15 0 5 31 55 70 111 79 115 183 235 214 247 22 8 46 3 46 -10z m4620 -53 c0
-4 -6 -7 -12 -6 -19 3 -48 -11 -48 -24 0 -9 58 -138 80 -179 13 -22 13 -65 1
-72 -5 -4 -7 2 -4 12 2 10 -14 59 -36 109 -68 156 -100 213 -119 214 -14 0
-14 2 3 8 14 6 36 0 77 -23 32 -17 58 -35 58 -39z m-361 20 l25 -32 -32 29
c-33 31 -37 36 -24 35 4 0 18 -14 31 -32z m-257 -31 c-2 -10 1 -15 7 -11 6 3
9 0 6 -8 -3 -7 6 -26 21 -43 21 -23 24 -24 14 -6 -6 13 -9 28 -7 35 2 7 14
-22 27 -63 13 -41 26 -77 30 -80 11 -10 -25 -67 -40 -62 -7 3 6 -18 29 -46 24
-28 48 -53 55 -55 16 -5 -10 -50 -59 -104 -36 -40 -54 -49 -198 -99 l-158 -56
-132 33 c-73 17 -203 46 -291 63 l-158 32 113 80 c411 293 449 317 604 375
109 42 142 45 137 15z m433 14 c3 -5 1 -10 -4 -10 -6 0 -11 5 -11 10 0 6 2 10
4 10 3 0 8 -4 11 -10z m-97 -29 c20 -1 3 -21 -17 -21 -10 0 -24 7 -31 15 -11
13 -9 15 11 11 13 -3 30 -5 37 -5z m79 -27 c0 -6 -9 -9 -19 -6 -10 2 -24 -1
-32 -7 -11 -9 -16 -9 -22 0 -4 7 -3 9 3 6 6 -4 13 -1 16 7 7 16 54 16 54 0z
m33 -4 c0 -5 -2 -10 -4 -10 -3 0 -8 5 -11 10 -3 6 -1 10 4 10 6 0 11 -4 11
-10z m-17 -35 c-3 -9 -8 -14 -10 -11 -3 3 -2 9 2 15 9 16 15 13 8 -4z m566
-66 c-19 -12 -29 -11 -29 2 0 5 5 7 10 4 6 -3 10 -1 10 5 0 6 5 8 11 4 8 -4 7
-9 -2 -15z m-45 -15 c5 -14 4 -15 -9 -4 -17 14 -19 20 -6 20 5 0 12 -7 15 -16z
m-771 -71 c-7 -2 -21 -2 -30 0 -10 3 -4 5 12 5 17 0 24 -2 18 -5z m77 -130
c33 -28 24 -43 -45 -74 -77 -35 -79 -35 -65 -8 12 21 79 99 86 99 2 0 13 -8
24 -17z m255 -103 c8 -13 -5 -13 -25 0 -13 8 -13 10 2 10 9 0 20 -4 23 -10z
m-3500 -2930 c-38 -38 -73 -70 -77 -70 -4 0 -16 28 -26 63 -18 62 -18 62 2 69
12 3 55 6 96 7 l74 1 -69 -70z m2255 -20 c-7 -44 -16 -80 -20 -78 -5 2 -44 38
-89 80 l-80 77 97 3 c53 2 99 2 101 1 2 -1 -2 -39 -9 -83z m-790 -96 c0 -1
-20 -18 -45 -39 l-46 -37 -42 39 -43 40 88 -1 c48 -1 88 -2 88 -2z"/>
<path d="M4285 7940 c3 -5 8 -10 11 -10 2 0 4 5 4 10 0 6 -5 10 -11 10 -5 0
-7 -4 -4 -10z"/>
<path d="M3998 7933 c7 -3 16 -2 19 1 4 3 -2 6 -13 5 -11 0 -14 -3 -6 -6z"/>
<path d="M4268 7923 c6 -2 10 -9 7 -13 -3 -5 -12 -7 -19 -4 -8 3 -17 1 -21 -5
-9 -16 30 -14 44 2 11 15 5 28 -13 26 -6 0 -5 -3 2 -6z"/>
<path d="M3916 7891 c-3 -5 1 -11 9 -14 9 -4 12 -1 8 9 -6 16 -10 17 -17 5z"/>
<path d="M4205 7840 c4 -6 11 -8 16 -5 14 9 11 15 -7 15 -8 0 -12 -5 -9 -10z"/>
<path d="M3538 7303 c7 -3 16 -2 19 1 4 3 -2 6 -13 5 -11 0 -14 -3 -6 -6z"/>
<path d="M3210 6725 c22 -13 23 -14 5 -15 -18 -1 -18 -2 3 -10 12 -5 32 -6 44
-1 18 6 19 9 5 14 -10 4 -17 2 -17 -3 0 -6 -9 -1 -20 10 -11 11 -26 20 -32 20
-7 -1 -2 -7 12 -15z"/>
<path d="M4440 6490 c-13 -8 -12 -10 3 -10 9 0 17 5 17 10 0 12 -1 12 -20 0z"/>
<path d="M4445 6431 c3 -6 1 -11 -4 -11 -12 0 -15 -36 -3 -43 4 -3 17 -1 29 4
26 9 22 28 -8 47 -12 8 -18 9 -14 3z m30 -39 c-3 -3 -11 0 -18 7 -9 10 -8 11
6 5 10 -3 15 -9 12 -12z"/>
<path d="M3555 6310 c-3 -6 1 -7 9 -4 18 7 21 14 7 14 -6 0 -13 -4 -16 -10z"/>
<path d="M3483 6214 c-3 -8 -1 -20 5 -26 7 -7 10 -2 9 16 -2 30 -5 32 -14 10z"/>
<path d="M5050 6130 c0 -5 5 -12 10 -15 6 -4 7 -11 4 -17 -5 -8 70 -88 83 -88
2 0 -14 27 -34 60 -35 55 -63 82 -63 60z"/>
<path d="M5942 5600 c0 -14 2 -19 5 -12 2 6 2 18 0 25 -3 6 -5 1 -5 -13z"/>
<path d="M3410 5850 c-9 -6 -10 -10 -3 -10 6 0 15 5 18 10 8 12 4 12 -15 0z"/>
<path d="M6261 5173 c7 -10 15 -20 16 -22 2 -2 3 3 3 11 0 9 -7 19 -16 22 -15
6 -15 4 -3 -11z"/>
<path d="M6654 5028 c-4 -6 1 -17 10 -24 11 -8 15 -18 11 -26 -6 -10 -5 -10 4
-2 14 13 3 47 -12 37 -6 -4 -8 0 -4 10 7 19 2 23 -9 5z"/>
<path d="M6636 4985 c4 -8 10 -12 15 -9 11 6 2 24 -11 24 -5 0 -7 -7 -4 -15z"/>
<path d="M7132 4929 c-24 -17 -41 -34 -38 -36 5 -5 86 54 86 63 0 7 -6 4 -48
-27z"/>
<path d="M6584 4891 c4 -5 1 -12 -4 -14 -6 -3 -5 -4 2 -3 15 3 23 26 8 26 -6
0 -9 -4 -6 -9z"/>
<path d="M7090 4866 c0 -8 4 -17 9 -21 6 -3 9 4 8 15 -1 23 -17 28 -17 6z"/>
<path d="M7135 4840 c3 -5 8 -10 11 -10 2 0 4 5 4 10 0 6 -5 10 -11 10 -5 0
-7 -4 -4 -10z"/>
<path d="M7425 5539 c-4 -6 -5 -12 -2 -15 2 -3 7 2 10 11 7 17 1 20 -8 4z"/>
<path d="M2635 4819 c3 -15 0 -19 -10 -15 -8 3 -17 1 -20 -4 -3 -4 6 -7 21 -5
20 2 24 -1 19 -14 -4 -12 -3 -13 5 -5 7 7 8 19 1 37 -12 32 -21 35 -16 6z"/>
<path d="M6960 4490 c0 -5 5 -10 11 -10 5 0 8 -4 5 -8 -3 -5 1 -9 9 -9 21 0
19 10 -5 25 -12 7 -20 8 -20 2z"/>
<path d="M4668 8093 c6 -2 18 -2 25 0 6 3 1 5 -13 5 -14 0 -19 -2 -12 -5z"/>
<path d="M5013 8093 c9 -2 23 -2 30 0 6 3 -1 5 -18 5 -16 0 -22 -2 -12 -5z"/>
<path d="M4960 8072 c0 -5 7 -9 15 -9 8 0 15 4 15 9 0 4 -7 8 -15 8 -8 0 -15
-4 -15 -8z"/>
<path d="M5006 8072 c-2 -4 4 -8 15 -8 10 0 19 4 19 8 0 4 -6 8 -14 8 -8 0
-17 -4 -20 -8z"/>
<path d="M5200 8059 c0 -5 5 -7 10 -4 6 3 10 8 10 11 0 2 -4 4 -10 4 -5 0 -10
-5 -10 -11z"/>
<path d="M5065 7979 c-4 -6 -5 -12 -2 -15 2 -3 7 2 10 11 7 17 1 20 -8 4z"/>
<path d="M5660 7790 c-30 -11 -45 -18 -33 -16 25 4 40 -9 23 -19 -5 -3 -10
-12 -10 -18 0 -7 4 -6 10 3 6 9 10 10 10 3 0 -6 -4 -14 -9 -17 -12 -8 -56
-128 -53 -145 2 -7 -1 -10 -6 -7 -6 3 -13 -1 -16 -10 -3 -8 -2 -12 4 -9 6 3
10 4 10 2 0 -6 -34 -84 -77 -176 -19 -40 -33 -75 -31 -76 2 -2 59 111 128 251
69 140 121 254 115 253 -5 0 -35 -9 -65 -19z"/>
<path d="M5965 7747 c14 -24 22 -47 17 -52 -4 -4 -1 -5 7 0 10 6 12 2 6 -14
-3 -12 -2 -21 4 -21 24 0 19 23 -15 75 -44 66 -55 73 -19 12z"/>
<path d="M2883 7763 c15 -2 39 -2 55 0 15 2 2 4 -28 4 -30 0 -43 -2 -27 -4z"/>
<path d="M6010 7645 c-6 -15 -8 -30 -5 -33 3 -3 5 0 5 7 0 7 5 9 10 6 6 -4 7
-13 1 -24 -13 -23 -3 -63 13 -54 6 3 3 -3 -7 -15 -11 -12 -16 -26 -11 -33 4
-7 7 -59 7 -116 -1 -95 -3 -106 -24 -129 -12 -13 -18 -24 -13 -24 5 0 2 -5 -6
-10 -11 -8 -7 -9 15 -4 61 14 15 -8 -56 -26 -41 -11 -58 -17 -39 -14 60 8 425
76 428 79 3 3 -273 380 -299 409 -5 5 -13 -3 -19 -19z m35 -64 c-8 -14 -25
-14 -25 0 0 5 5 7 10 4 6 -3 10 -1 10 6 0 7 3 10 6 6 3 -3 3 -10 -1 -16z m-20
-341 c-3 -5 -10 -10 -16 -10 -5 0 -9 5 -9 10 0 6 7 10 16 10 8 0 12 -4 9 -10z"/>
<path d="M5462 7265 c-17 -37 -14 -45 4 -12 9 16 14 31 11 33 -2 2 -9 -7 -15
-21z"/>
<path d="M6635 6549 c-4 -6 -5 -12 -2 -15 2 -3 7 2 10 11 7 17 1 20 -8 4z"/>
<path d="M7488 6295 c-3 -14 -1 -25 3 -25 5 0 9 11 9 25 0 14 -2 25 -4 25 -2
0 -6 -11 -8 -25z"/>
<path d="M7448 6273 c7 -3 16 -2 19 1 4 3 -2 6 -13 5 -11 0 -14 -3 -6 -6z"/>
<path d="M7628 5753 c7 -3 16 -2 19 1 4 3 -2 6 -13 5 -11 0 -14 -3 -6 -6z"/>
<path d="M7663 5690 c0 -25 2 -35 4 -22 2 12 2 32 0 45 -2 12 -4 2 -4 -23z"/>
<path d="M7718 5023 c6 -2 18 -2 25 0 6 3 1 5 -13 5 -14 0 -19 -2 -12 -5z"/>
<path d="M7768 5023 c7 -3 16 -2 19 1 4 3 -2 6 -13 5 -11 0 -14 -3 -6 -6z"/>
<path d="M7548 4853 c7 -3 16 -2 19 1 4 3 -2 6 -13 5 -11 0 -14 -3 -6 -6z"/>
<path d="M7801 4804 c0 -11 3 -14 6 -6 3 7 2 16 -1 19 -3 4 -6 -2 -5 -13z"/>
<path d="M7913 4345 c0 -33 2 -45 4 -27 2 18 2 45 0 60 -2 15 -4 0 -4 -33z"/>
<path d="M7282 4060 c0 -14 2 -19 5 -12 2 6 2 18 0 25 -3 6 -5 1 -5 -13z"/>
<path d="M6751 3936 c12 -14 27 -22 34 -20 7 3 16 1 20 -5 3 -6 1 -11 -5 -11
-6 0 -8 -4 -5 -10 10 -16 -7 -12 -27 7 -22 20 -24 1 -2 -22 10 -10 24 -13 38
-9 46 14 42 27 -18 68 -48 33 -62 33 -35 2z"/>
<path d="M6662 3890 c0 -14 2 -19 5 -12 2 6 2 18 0 25 -3 6 -5 1 -5 -13z"/>
<path d="M6711 3865 c12 -19 25 -33 30 -30 4 3 -1 15 -11 25 -11 11 -20 25
-20 30 0 6 -4 10 -10 10 -5 0 0 -16 11 -35z"/>
<path d="M6764 3834 c7 -19 -11 -57 -24 -49 -5 3 -11 1 -14 -4 -13 -20 24 -19
39 2 17 25 20 67 4 67 -6 0 -8 -7 -5 -16z"/>
<path d="M6720 3809 c0 -5 -4 -8 -9 -4 -5 3 -12 2 -15 -3 -3 -5 8 -8 24 -8 23
0 27 2 18 13 -13 16 -18 16 -18 2z"/>
<path d="M6694 3759 c-3 -5 -2 -8 3 -7 4 2 8 -1 8 -7 0 -5 -4 -9 -8 -7 -5 1
-5 -3 -1 -9 5 -9 1 -10 -14 -7 -21 6 -31 -6 -14 -16 10 -6 72 30 72 43 0 12
-39 21 -46 10z"/>
</g>
</svg>
